<svg width="196" height="68" viewBox="0 0 196 68" fill="none" xmlns="http://www.w3.org/2000/svg">
<g id="Logo" clip-path="url(#clip0_1_36)">
<g id="Group">
<path id="Vector" d="M0 31.3962C0 49.4527 0.0102083 50.3741 0.18375 50.2739C0.79625 49.9134 4.31812 47.5599 5.23687 46.909L5.61458 46.6286V37.385C5.61458 32.2975 5.64521 28.1414 5.69625 28.1414C5.73708 28.1414 6.14542 28.6922 6.60479 29.3732C7.51333 30.6851 8.52396 32.1473 9.37125 33.349C9.66729 33.7597 10.2594 34.6209 10.6881 35.2518C11.1271 35.8828 11.5048 36.4236 11.5456 36.4536C11.5865 36.4837 11.8825 36.9043 12.2092 37.385C12.8625 38.3464 12.9442 38.4566 13.4648 39.1976C13.8527 39.7485 13.8527 39.7384 14.1692 38.8071C14.6387 37.395 14.8837 36.043 14.9654 34.3806L15.0369 33.0586L14.159 31.8268C13.0667 30.2845 12.9748 30.1644 12.2908 29.243C11.9948 28.8324 11.6375 28.3517 11.515 28.1714C11.3823 27.9912 11.1781 27.7007 11.0454 27.5205C10.9127 27.3402 10.3308 26.509 9.73875 25.6878C9.15687 24.8566 8.59542 24.0754 8.49333 23.9452C8.40146 23.815 8.24833 23.6047 8.16667 23.4845C7.91146 23.104 7.28875 22.2227 6.71708 21.4315C6.42104 21.0109 5.82896 20.1897 5.41042 19.5988C4.67542 18.5573 1.58229 14.2109 1.1025 13.5399C0.520625 12.7287 0.255208 12.4183 0.132708 12.4183C0.0204167 12.4183 0 15.9935 0 31.3962Z" fill="black"/>
<path id="Vector_2" d="M37.1686 13.2895C36.8317 13.7803 36.4642 14.301 36.3417 14.4713C35.719 15.3526 33.9121 17.8362 33.759 18.0365C33.6569 18.1667 33.5038 18.3971 33.4017 18.5373C32.779 19.4686 32.6259 19.689 32.5646 19.729C32.5238 19.7591 32.3707 19.9594 32.2277 20.1797C31.9623 20.5803 31.7173 20.9308 30.625 22.463C30.3188 22.8937 29.9921 23.3543 29.9104 23.4845C29.8186 23.6147 29.6348 23.8651 29.5021 24.0354C29.3694 24.2056 29.1857 24.456 29.0938 24.5862C29.0121 24.7164 28.5732 25.3272 28.1138 25.9582C26.2661 28.5019 25.0513 30.1744 24.8573 30.4348C24.6225 30.7552 23.959 31.6966 23.5915 32.2374C23.4588 32.4277 23.2852 32.658 23.2036 32.7281C22.7952 33.1387 22.734 33.4392 22.8157 34.8412C22.8565 35.5923 22.9484 36.5337 23.03 36.9543C23.3159 38.4165 23.9998 40.2091 24.1938 39.9888C24.2346 39.9488 24.6021 39.438 25.0207 38.8571C25.4392 38.2763 25.8782 37.6654 25.9904 37.5052C26.1129 37.3349 26.4702 36.8442 26.7867 36.4035C27.1032 35.9629 27.4604 35.4722 27.5932 35.3019C28.2669 34.4106 29.0325 33.3891 29.2469 33.0686C29.3796 32.8683 29.9309 32.1072 30.4719 31.3962C31.0129 30.6751 31.6357 29.8339 31.8602 29.5134C32.0848 29.2029 32.3094 28.9426 32.3604 28.9426C32.4217 28.9426 32.4625 32.1873 32.4625 37.7856V46.6286L35.0657 48.4112C36.4948 49.3926 37.6892 50.2339 37.73 50.284C37.7607 50.334 37.8525 50.3741 37.9342 50.3741C38.0567 50.3741 38.0771 47.8504 38.0771 31.3962C38.0771 15.0121 38.0567 12.4183 37.9342 12.4183C37.8525 12.4183 37.5054 12.8088 37.1686 13.2895Z" fill="black"/>
<path id="Vector_3" d="M186.608 29.6035C184.332 29.8739 182.678 30.7552 182.045 32.0271C181.8 32.5178 181.759 32.7181 181.759 33.4492C181.77 34.4607 181.974 34.9314 182.637 35.4922C183.587 36.2834 184.965 36.5638 189.416 36.8542C192.754 37.0745 193.601 37.4651 193.601 38.757C193.601 39.428 193.417 39.7384 192.774 40.1791C192.049 40.6798 190.967 40.8901 189.058 40.9001C186.802 40.9102 185.281 40.5697 183.495 39.6783C182.995 39.418 182.545 39.2077 182.505 39.2077C182.362 39.2077 181.28 40.6798 181.361 40.7599C181.698 41.0904 183.291 41.8916 184.128 42.152C187.2 43.1034 191.508 43.0233 193.724 41.9617C195.163 41.2607 195.908 40.2392 195.98 38.8171C196.031 37.8256 195.786 37.0945 195.214 36.5237C194.183 35.4722 192.641 35.0616 188.905 34.8012C187.67 34.7211 186.476 34.6309 186.251 34.5909C184.893 34.4006 184.056 33.8698 184.056 33.2088C184.056 32.6079 184.291 32.2975 184.995 31.957C186.853 31.0757 190.528 31.3261 193.131 32.5078L193.907 32.8583L194.54 32.1773C194.887 31.8068 195.163 31.4563 195.153 31.4062C195.102 31.256 193.724 30.5549 192.927 30.2845C191.57 29.8138 190.467 29.6336 188.65 29.5935C187.721 29.5735 186.802 29.5835 186.608 29.6035Z" fill="black"/>
<path id="Vector_4" d="M47.6729 36.2032V42.5726L48.7244 42.5426L49.7656 42.5125L49.7962 37.425C49.8065 34.6309 49.8575 32.3476 49.8983 32.3476C49.9392 32.3576 50.1535 32.5879 50.3781 32.8784C50.6946 33.2789 55.319 39.0374 55.911 39.7585C55.9825 39.8386 56.1152 40.0189 56.2275 40.1491C56.3296 40.2792 56.4623 40.3594 56.5235 40.3293C56.5746 40.2993 58.0854 38.4566 59.8821 36.2433L63.1385 32.2174L63.1692 37.385L63.1896 42.5626H64.2615H65.3333V36.2032V29.8439H64.0267H62.72L62.1687 30.5149C61.8625 30.8954 61.5767 31.2359 61.5256 31.296C61.4848 31.3461 60.3517 32.7482 59.0246 34.3906C57.6975 36.043 56.5644 37.385 56.5031 37.385C56.4521 37.385 55.0331 35.6925 53.3487 33.6194L50.2862 29.8439H48.9796H47.6729V36.2032Z" fill="black"/>
<path id="Vector_5" d="M76.5625 30.7953V31.7467H83.3306H90.0885L90.0579 30.7953L90.0273 29.8439H83.2898H76.5625V30.7953Z" fill="black"/>
<path id="Vector_6" d="M99.8375 36.2032V42.5626L105.891 42.5426L111.934 42.5125V41.5611V40.6097L106.963 40.5797L101.981 40.5596L101.961 35.2218L101.93 29.894L100.889 29.8639L99.8375 29.8339V36.2032Z" fill="black"/>
<path id="Vector_7" d="M120.989 34.5708C121.02 39.9988 120.989 39.7585 122 40.81C122.663 41.501 123.286 41.8916 124.317 42.2622C125.716 42.7629 126.706 42.8931 128.727 42.833C130.789 42.7829 131.636 42.6127 132.974 41.9617C134.025 41.461 134.719 40.8501 135.169 40.0389L135.516 39.408L135.546 34.6209L135.577 29.8439H134.505H133.423V34.1402C133.423 38.9373 133.413 38.9974 132.729 39.6884C131.933 40.4996 130.84 40.8401 128.778 40.9302C126.532 41.0203 124.93 40.6598 124.001 39.8586C123.153 39.1275 123.174 39.1977 123.133 34.2203L123.102 29.8439H122.03H120.959L120.989 34.5708Z" fill="black"/>
<path id="Vector_8" d="M143.958 29.914C143.968 29.9641 144.938 31.7367 146.102 33.8498C147.265 35.9729 148.797 38.787 149.521 40.109L150.828 42.5125H152.094H153.35L155.187 39.1576C156.188 37.3149 157.729 34.5007 158.597 32.9184C159.464 31.3361 160.169 29.9941 160.169 29.944C160.169 29.7938 157.974 29.8139 157.851 29.9641C157.79 30.0342 156.749 31.9169 155.524 34.1502C154.299 36.3835 153.023 38.6969 152.686 39.2878L152.084 40.3694L150.849 38.1361C150.165 36.9043 148.878 34.5508 147.97 32.8984L146.336 29.894L145.122 29.8639C144.458 29.8539 143.938 29.8739 143.958 29.914Z" fill="black"/>
<path id="Vector_9" d="M169.305 29.9641C169.275 30.0342 169.264 32.8884 169.275 36.3034L169.305 42.5125L170.357 42.5426L171.398 42.5726V36.2032V29.8439H170.377C169.652 29.8439 169.336 29.884 169.305 29.9641Z" fill="black"/>
<path id="Vector_10" d="M17.0683 30.7452C16.4456 30.8554 15.9352 31.0857 15.8536 31.306C15.8229 31.3862 15.874 31.957 15.9658 32.5779C16.3538 35.2819 16.415 36.9844 16.1802 38.9573C15.9556 40.8601 15.9148 40.9502 14.9552 41.6312C14.5061 41.9517 13.7302 42.5025 13.2402 42.863C12.7502 43.2236 11.6477 44.0247 10.7902 44.6457C9.94293 45.2666 9.07522 45.8975 8.88127 46.0477C8.68731 46.1979 7.19689 47.2795 5.56356 48.4513C3.94043 49.623 2.35814 50.7647 2.0621 50.995C0.867724 51.9164 0.204182 53.1081 0.204182 54.3499C0.204182 54.9608 0.183766 54.9608 1.45981 54.7705C2.96043 54.5502 4.15481 54.39 5.0021 54.2798C5.81877 54.1797 6.60481 54.0695 8.98335 53.729C9.51418 53.6589 10.3717 53.5387 10.8719 53.4786C12.7502 53.2583 13.5669 53.0881 14.1998 52.7976C14.5571 52.6274 15.1798 52.357 15.5677 52.1767C16.3333 51.8362 17.2113 51.4457 18.2525 50.965C18.9671 50.6445 19.1611 50.6144 19.4469 50.8047C19.5592 50.8848 20.1308 51.1352 20.7229 51.3756C21.315 51.6159 21.8458 51.8462 21.8969 51.8863C21.9581 51.9264 22.3461 52.0866 22.7646 52.2569C23.5813 52.5773 23.9692 52.6675 25.8271 52.9779C26.4702 53.0881 27.3686 53.2383 27.8177 53.3284C28.2669 53.4085 28.9509 53.5187 29.3388 53.5788C29.7165 53.6389 30.0738 53.699 30.1146 53.729C30.1554 53.7591 30.4821 53.8191 30.8394 53.8792C31.1967 53.9293 32.2788 54.1096 33.2281 54.2798C35.2392 54.6303 35.8313 54.7305 36.7602 54.8707C37.1277 54.9308 37.5054 55.0009 37.6075 55.0409C37.8729 55.1411 37.8219 54.2097 37.5054 53.2984C37.0869 52.0566 36.7704 51.7261 34.3102 49.9334C34.1673 49.8233 33.4323 49.2825 32.6769 48.7317C31.9317 48.1708 31.1967 47.63 31.0436 47.5299C30.5331 47.1594 28.3281 45.5169 27.7667 45.0963C27.4604 44.856 26.6744 44.2751 26.0313 43.7944C25.3881 43.3137 24.8369 42.8931 24.8063 42.863C24.7756 42.823 24.3673 42.5225 23.8875 42.182C22.0296 40.8501 21.8765 40.6999 21.7234 40.129C21.5192 39.3379 21.5498 35.0616 21.7642 34C21.8561 33.5594 21.9888 32.8283 22.0602 32.3676C22.1929 31.5464 22.1929 31.5364 21.9377 31.306C21.509 30.8954 20.7127 30.7252 19.0896 30.6851C18.2729 30.6651 17.3644 30.6951 17.0683 30.7452Z" fill="black"/>
<path id="Vector_11" d="M76.5625 35.9529V36.9543H83.3H90.0477L90.0171 35.9729L89.9865 35.0015L83.2796 34.9714L76.5625 34.9514V35.9529Z" fill="black"/>
<path id="Vector_12" d="M76.5625 41.5611V42.5626H83.2796C86.975 42.5626 90.0273 42.5426 90.0477 42.5225C90.0681 42.5025 90.0783 42.0518 90.0579 41.5211L90.0273 40.5596H83.2898H76.5625V41.5611Z" fill="black"/>
</g>
</g>
<defs>
<clipPath id="clip0_1_36">
<rect width="196" height="68" fill="white"/>
</clipPath>
</defs>
</svg>
